<?xml version="1.0" encoding="UTF-8" standalone="no"?>
<!-- Created with Inkscape (http://www.inkscape.org/) -->

<svg
   width="200mm"
   height="200mm"
   viewBox="0 0 200 200"
   version="1.1"
   id="svg1"
   xml:space="preserve"
   inkscape:version="1.4.2 (ebf0e940d0, 2025-05-08)"
   sodipodi:docname="task360.svg"
   xmlns:inkscape="http://www.inkscape.org/namespaces/inkscape"
   xmlns:sodipodi="http://sodipodi.sourceforge.net/DTD/sodipodi-0.dtd"
   xmlns="http://www.w3.org/2000/svg"
   xmlns:svg="http://www.w3.org/2000/svg"><sodipodi:namedview
     id="namedview1"
     pagecolor="#ffffff"
     bordercolor="#111111"
     borderopacity="1"
     inkscape:showpageshadow="0"
     inkscape:pageopacity="0"
     inkscape:pagecheckerboard="1"
     inkscape:deskcolor="#d1d1d1"
     inkscape:document-units="mm"
     inkscape:zoom="1.4248975"
     inkscape:cx="377.22011"
     inkscape:cy="381.43093"
     inkscape:window-width="2494"
     inkscape:window-height="1363"
     inkscape:window-x="0"
     inkscape:window-y="0"
     inkscape:window-maximized="1"
     inkscape:current-layer="layer1" /><defs
     id="defs1" /><g
     inkscape:label="Layer 1"
     inkscape:groupmode="layer"
     id="layer1"><path
       d="m 107.89442,195.20508 c -0.5977,-0.24218 -1.45394,-0.65361 -1.90275,-0.91429 -0.44882,-0.2607 -9.546311,-9.69142 -20.216652,-20.9572 -21.48694,-22.68588 -20.417895,-21.33634 -20.417895,-25.77526 0,-1.60959 0.198794,-2.4591 0.9495,-4.05758 1.086388,-2.31329 2.229248,-3.46219 4.594952,-4.61928 2.31996,-1.1347 5.760787,-0.95795 7.99819,0.41089 0.961235,0.58807 6.91944,6.65523 16.278199,16.57589 11.912756,12.62798 14.918286,15.64829 15.571686,15.64829 0.66185,0 7.29635,-6.93501 36.34224,-37.98845 29.16344,-31.17911 35.80575,-38.121275 37.0566,-38.729535 2.15386,-1.04735 5.62189,-1.04806 7.61813,-10e-4 1.79025,0.93851 3.47963,2.66004 4.38536,4.4688 0.56949,1.137295 0.69416,1.918105 0.696,4.358845 0.002,2.63937 -0.0915,3.14037 -0.83158,4.46006 -0.48283,0.8609 -17.5385,19.24689 -40.51913,43.6796 -33.26717,35.36924 -39.93331,42.30875 -41.21877,42.9091 -1.88584,0.88075 -4.90246,1.13198 -6.38408,0.53167 z M 4.1664427,177.48869 3.2588513,176.52298 v -43.07694 c 0,-42.816275 0.00371,-43.081288 0.6295763,-43.795983 0.3462676,-0.395475 0.9400824,-0.801043 1.3195887,-0.901261 0.3795063,-0.100241 6.3259957,-0.139178 13.2144207,-0.08669 l 12.524417,0.09565 0.752514,0.931172 0.752513,0.931184 -0.08109,43.119808 -0.08109,43.11982 -0.871167,0.79729 -0.871168,0.79731 H 17.810747 5.0740319 Z m 37.3170243,0.50468 c -1.650097,-0.97317 -1.563808,2.29159 -1.575625,-59.60988 l -0.01061,-57.593108 0.907594,-0.965713 0.907581,-0.965712 h 12.584177 c 8.561396,0 12.826039,0.11725 13.340776,0.366806 0.416127,0.201746 0.911724,0.729079 1.101328,1.171866 0.24551,0.573346 0.344731,10.592755 0.344731,34.812466 v 34.007425 l -1.630077,0.87375 c -2.2413,1.20137 -7.665126,6.9106 -8.892054,9.35998 -2.415438,4.822 -2.554475,11.59921 -0.33302,16.23246 0.351843,0.73382 2.918851,3.70758 5.745568,6.65593 l 5.109583,5.32948 v 4.0556 c 0,4.43069 -0.230666,5.35076 -1.549199,6.17951 -0.777627,0.48878 -2.238542,0.54887 -13.091804,0.53846 -9.543353,-0.009 -12.378871,-0.10747 -12.95855,-0.44932 z m 44.503135,-44.17821 c -3.010424,-2.90793 -5.496788,-4.4001 -7.923537,-4.75525 l -1.528252,-0.22364 V 77.148704 25.461144 l 0.762125,-0.810917 0.762113,-0.810915 h 12.913618 12.913611 l 0.76211,0.810915 0.7621,0.810917 V 72.622168 119.7832 l -7.831798,8.35684 c -4.307491,4.59627 -8.053223,8.35684 -8.32384,8.35684 -0.270618,0 -1.741328,-1.20677 -3.26825,-2.68172 z M 147.38892,86.874693 c -0.25186,-0.268009 -0.37259,-1.798698 -0.37259,-4.72432 v -4.32788 l -1.94056,-0.424445 c -4.72834,-1.034187 -9.31786,-3.689646 -12.16709,-7.03976 -1.6113,-1.894564 -3.59035,-5.349002 -3.59035,-6.266966 0,-0.478385 8.69055,-5.893104 9.45836,-5.893104 0.24327,0 0.90428,0.614814 1.46894,1.366257 3.56544,4.744976 5.71237,6.254154 9.84351,6.919502 5.28361,0.850973 10.07682,-1.003997 11.55767,-4.472794 1.57145,-3.681095 -0.0961,-7.093878 -4.28118,-8.761736 -0.99593,-0.39691 -4.32576,-1.444111 -7.39962,-2.327124 -6.85266,-1.968534 -8.55407,-2.591166 -11.34509,-4.151714 -3.6981,-2.06774 -6.02681,-5.481698 -6.96962,-10.217658 -2.19629,-11.032483 3.48487,-20.451774 14.04545,-23.287165 l 1.31958,-0.354294 V 9.0258169 c 0,-2.581701 0.12504,-4.018731 0.37259,-4.282137 0.52231,-0.555739 10.22072,-0.555739 10.74301,0 0.24763,0.26348 0.37259,1.70186 0.37259,4.288567 v 3.8921311 l 0.85384,0.200635 c 3.72821,0.876083 6.76709,2.48398 9.33183,4.937556 1.88359,1.801963 5.40633,7.283225 5.27333,8.205096 -0.0623,0.431573 -1.46024,1.367031 -4.57449,3.061061 -2.46665,1.341758 -4.727,2.439565 -5.02299,2.439565 -0.3225,0 -0.97308,-0.761718 -1.62318,-1.900457 -1.3912,-2.436795 -2.11178,-3.137778 -4.39449,-4.274969 -1.69239,-0.843106 -2.17324,-0.926741 -5.27744,-0.917976 -2.9007,0.0087 -3.66141,0.126514 -5.04776,0.785069 -5.1986,2.469484 -5.35921,8.952618 -0.28651,11.56551 0.71599,0.368816 3.95563,1.407538 7.19918,2.308282 11.18257,3.105439 14.48145,4.821719 17.20297,8.949958 4.87234,7.390783 3.70697,18.421568 -2.5681,24.308367 -1.93989,1.819858 -5.79884,3.89097 -8.73751,4.689449 l -2.17344,0.59055 -0.0873,4.265152 c -0.0502,2.453778 -0.23122,4.449628 -0.42612,4.699541 -0.46162,0.591811 -10.20455,0.626167 -10.7574,0.03801 z"
       style="fill:#196aed;stroke-width:1.2105;fill-opacity:1"
       id="path1" /></g></svg>
